<svg width="67" height="67" viewBox="0 0 67 67" fill="#28646E" xmlns="http://www.w3.org/2000/svg">
<path d="M50.2499 19.5417H58.6249C59.3653 19.5417 60.0754 19.8358 60.5989 20.3593C61.1225 20.8829 61.4166 21.5929 61.4166 22.3333V55.8333C61.4166 56.5737 61.1225 57.2838 60.5989 57.8073C60.0754 58.3309 59.3653 58.625 58.6249 58.625H8.37492C7.63452 58.625 6.92445 58.3309 6.40091 57.8073C5.87737 57.2838 5.58325 56.5737 5.58325 55.8333V11.1667C5.58325 10.4263 5.87737 9.7162 6.40091 9.19266C6.92445 8.66912 7.63452 8.375 8.37492 8.375H50.2499V19.5417ZM11.1666 25.125V53.0417H55.8333V25.125H11.1666ZM11.1666 13.9583V19.5417H44.6666V13.9583H11.1666ZM41.8749 36.2917H50.2499V41.875H41.8749V36.2917Z" />
</svg>
