<svg width="25" height="24" viewBox="0 0 25 24" fill="none" xmlns="http://www.w3.org/2000/svg">
<path d="M11.125 11V7H13.125V11H17.125V13H13.125V17H11.125V13H7.125V11H11.125ZM12.125 22C6.602 22 2.125 17.523 2.125 12C2.125 6.477 6.602 2 12.125 2C17.648 2 22.125 6.477 22.125 12C22.125 17.523 17.648 22 12.125 22ZM12.125 20C14.2467 20 16.2816 19.1571 17.7819 17.6569C19.2821 16.1566 20.125 14.1217 20.125 12C20.125 9.87827 19.2821 7.84344 17.7819 6.34315C16.2816 4.84285 14.2467 4 12.125 4C10.0033 4 7.96844 4.84285 6.46815 6.34315C4.96785 7.84344 4.125 9.87827 4.125 12C4.125 14.1217 4.96785 16.1566 6.46815 17.6569C7.96844 19.1571 10.0033 20 12.125 20Z"/>
</svg>
