<svg width="25" height="24" viewBox="0 0 25 24" fill="none" xmlns="http://www.w3.org/2000/svg">
<path d="M5.955 15L1.5 18.5V3C1.5 2.73478 1.60536 2.48043 1.79289 2.29289C1.98043 2.10536 2.23478 2 2.5 2H17.5C17.7652 2 18.0196 2.10536 18.2071 2.29289C18.3946 2.48043 18.5 2.73478 18.5 3V15H5.955ZM5.263 13H16.5V4H3.5V14.385L5.263 13ZM8.5 17H18.737L20.5 18.385V8H21.5C21.7652 8 22.0196 8.10536 22.2071 8.29289C22.3946 8.48043 22.5 8.73478 22.5 9V22.5L18.045 19H9.5C9.23478 19 8.98043 18.8946 8.79289 18.7071C8.60536 18.5196 8.5 18.2652 8.5 18V17Z" fill="#222222"/>
</svg>
