<svg width="17" height="16" viewBox="0 0 17 16" fill="none" xmlns="http://www.w3.org/2000/svg">
<path d="M3.83341 14.6668C3.6566 14.6668 3.48703 14.5966 3.36201 14.4716C3.23699 14.3465 3.16675 14.177 3.16675 14.0002V2.00016C3.16675 1.82335 3.23699 1.65378 3.36201 1.52876C3.48703 1.40373 3.6566 1.3335 3.83341 1.3335H13.1667C13.3436 1.3335 13.5131 1.40373 13.6382 1.52876C13.7632 1.65378 13.8334 1.82335 13.8334 2.00016V4.00016H12.5001V2.66683H4.50008V13.3335H12.5001V12.0002H13.8334V14.0002C13.8334 14.177 13.7632 14.3465 13.6382 14.4716C13.5131 14.5966 13.3436 14.6668 13.1667 14.6668H3.83341ZM12.5001 10.6668V8.66683H7.83341V7.3335H12.5001V5.3335L15.8334 8.00016L12.5001 10.6668Z" fill="black"/>
</svg>
