<svg width="25" height="24" viewBox="0 0 25 24" fill="none" xmlns="http://www.w3.org/2000/svg">
<path d="M15.875 2.00001C16.5773 1.99992 17.2672 2.18474 17.8754 2.53587C18.4836 2.887 18.9887 3.39207 19.3397 4.0003C19.6908 4.60853 19.8756 5.29847 19.8755 6.00075C19.8753 6.70304 19.6903 7.39291 19.339 8.00101L23.875 8.00001V10H21.875V20C21.875 20.2652 21.7696 20.5196 21.5821 20.7071C21.3946 20.8946 21.1402 21 20.875 21H4.875C4.60978 21 4.35543 20.8946 4.16789 20.7071C3.98036 20.5196 3.875 20.2652 3.875 20V10H1.875V8.00001L6.411 8.00101C5.91486 7.14189 5.75569 6.12906 5.96438 5.15918C6.17308 4.1893 6.73475 3.33157 7.54033 2.75256C8.34592 2.17354 9.33793 1.91456 10.3237 2.02588C11.3096 2.13721 12.2188 2.61091 12.875 3.35501C13.2496 2.92839 13.7111 2.58678 14.2285 2.35308C14.7459 2.11939 15.3073 1.99901 15.875 2.00001ZM11.875 10H5.875V19H11.875V10ZM19.875 10H13.875V19H19.875V10ZM9.875 4.00001C9.35602 3.99768 8.85645 4.19719 8.48185 4.55639C8.10724 4.91558 7.88693 5.40632 7.86746 5.92495C7.84799 6.44357 8.03088 6.94945 8.37749 7.33572C8.72411 7.722 9.2073 7.9584 9.725 7.99501L9.875 8.00001H11.875V6.00001C11.875 5.52207 11.7039 5.05992 11.3926 4.69726C11.0813 4.33461 10.6504 4.09541 10.178 4.02301L10.024 4.00501L9.875 4.00001ZM15.875 4.00001C15.3704 3.99985 14.8844 4.19041 14.5145 4.5335C14.1445 4.87659 13.9178 5.34685 13.88 5.85001L13.875 6.00001V8.00001H15.875C16.3796 8.00017 16.8656 7.8096 17.2355 7.46651C17.6055 7.12342 17.8322 6.65316 17.87 6.15001L17.875 6.00001C17.875 5.46957 17.6643 4.96087 17.2892 4.58579C16.9141 4.21072 16.4054 4.00001 15.875 4.00001Z"/>
</svg>
