<svg width="25" height="24" viewBox="0 0 25 24" fill="none" xmlns="http://www.w3.org/2000/svg">
<path d="M21.5 20C21.5 20.2652 21.3946 20.5196 21.2071 20.7071C21.0196 20.8946 20.7652 21 20.5 21H4.5C4.23478 21 3.98043 20.8946 3.79289 20.7071C3.60536 20.5196 3.5 20.2652 3.5 20V9.49C3.49989 9.33761 3.53462 9.18721 3.60152 9.0503C3.66841 8.91338 3.76572 8.79356 3.886 8.7L11.886 2.478C12.0615 2.34144 12.2776 2.2673 12.5 2.2673C12.7224 2.2673 12.9385 2.34144 13.114 2.478L21.114 8.7C21.2343 8.79356 21.3316 8.91338 21.3985 9.0503C21.4654 9.18721 21.5001 9.33761 21.5 9.49V20V20ZM19.5 19V9.978L12.5 4.534L5.5 9.978V19H19.5ZM7.5 15H17.5V17H7.5V15Z" />
</svg>
