<svg width="25" height="24" viewBox="0 0 25 24" fill="none" xmlns="http://www.w3.org/2000/svg">
<path d="M13.56 8.11023L14.975 9.52523C15.6251 10.1753 16.1408 10.947 16.4926 11.7963C16.8444 12.6456 17.0255 13.5559 17.0255 14.4752C17.0255 15.3945 16.8444 16.3049 16.4926 17.1542C16.1408 18.0035 15.6251 18.7752 14.975 19.4252L14.621 19.7782C13.3082 21.0911 11.5276 21.8286 9.67101 21.8286C7.8144 21.8286 6.03383 21.0911 4.72101 19.7782C3.40819 18.4654 2.67065 16.6848 2.67065 14.8282C2.67065 12.9716 3.40819 11.1911 4.72101 9.87823L6.13601 11.2932C5.66838 11.7568 5.29692 12.3081 5.04294 12.9156C4.78896 13.5231 4.65748 14.1748 4.65604 14.8333C4.6546 15.4917 4.78323 16.144 5.03454 16.7526C5.28585 17.3612 5.6549 17.9142 6.12049 18.3798C6.58609 18.8453 7.13906 19.2144 7.74767 19.4657C8.35628 19.717 9.00853 19.8456 9.66698 19.8442C10.3254 19.8428 10.9771 19.7113 11.5846 19.4573C12.1921 19.2033 12.7435 18.8319 13.207 18.3642L13.561 18.0102C14.4984 17.0726 15.0249 15.8011 15.0249 14.4752C15.0249 13.1494 14.4984 11.8779 13.561 10.9402L12.146 9.52523L13.561 8.11123L13.56 8.11023ZM20.278 14.1212L18.864 12.7072C19.3316 12.2437 19.7031 11.6923 19.9571 11.0848C20.2111 10.4773 20.3425 9.82565 20.344 9.1672C20.3454 8.50875 20.2168 7.8565 19.9655 7.24789C19.7142 6.63928 19.3451 6.08631 18.8795 5.62071C18.4139 5.15512 17.861 4.78607 17.2524 4.53476C16.6437 4.28345 15.9915 4.15482 15.333 4.15626C14.6746 4.1577 14.0229 4.28919 13.4154 4.54316C12.8079 4.79714 12.2566 5.1686 11.793 5.63623L11.439 5.99023C10.5017 6.92787 9.97508 8.19941 9.97508 9.52523C9.97508 10.8511 10.5017 12.1226 11.439 13.0602L12.854 14.4752L11.439 15.8892L10.025 14.4752C9.37493 13.8252 8.85925 13.0535 8.50742 12.2042C8.15559 11.3549 7.97451 10.4445 7.97451 9.52523C7.97451 8.60592 8.15559 7.69561 8.50742 6.84628C8.85925 5.99696 9.37493 5.22525 10.025 4.57523L10.379 4.22223C11.6918 2.90941 13.4724 2.17188 15.329 2.17188C17.1856 2.17188 18.9662 2.90941 20.279 4.22223C21.5918 5.53505 22.3294 7.31562 22.3294 9.17223C22.3294 11.0288 21.5918 12.8094 20.279 14.1222L20.278 14.1212Z" fill="black"/>
</svg>
