<svg width="25" height="24" viewBox="0 0 25 24" fill="none" xmlns="http://www.w3.org/2000/svg">
<path d="M19.162 19.567C17.3474 21.1393 15.026 22.0033 12.625 22C7.102 22 2.625 17.523 2.625 12C2.625 6.477 7.102 2 12.625 2C18.148 2 22.625 6.477 22.625 12C22.625 14.136 21.955 16.116 20.815 17.74L17.625 12H20.625C20.6248 10.1562 19.9878 8.36906 18.8217 6.94089C17.6555 5.51272 16.0319 4.53119 14.2253 4.16236C12.4188 3.79352 10.5403 4.06002 8.90768 4.91677C7.27502 5.77351 5.98842 7.16791 5.26552 8.86408C4.54262 10.5603 4.42781 12.4541 4.94049 14.2251C5.45318 15.9962 6.56189 17.5358 8.07908 18.5836C9.59627 19.6313 11.4288 20.1228 13.2666 19.9749C15.1045 19.827 16.8349 19.0488 18.165 17.772L19.162 19.567Z"/>
</svg>
