<svg width="25" height="24" viewBox="0 0 25 24" fill="none" xmlns="http://www.w3.org/2000/svg">
<path d="M13.62 17.0232L9.42096 14.7332C8.87276 15.3193 8.16095 15.7269 7.37803 15.9031C6.59512 16.0793 5.77731 16.0159 5.03088 15.7212C4.28445 15.4266 3.64392 14.9142 3.19253 14.2506C2.74114 13.5871 2.49976 12.8032 2.49976 12.0007C2.49976 11.1982 2.74114 10.4143 3.19253 9.75076C3.64392 9.08725 4.28445 8.57486 5.03088 8.28016C5.77731 7.98547 6.59512 7.92211 7.37803 8.09832C8.16095 8.27452 8.87276 8.68214 9.42096 9.2682L13.621 6.9782C13.3825 6.03428 13.4965 5.03579 13.9416 4.16991C14.3867 3.30402 15.1323 2.63018 16.0386 2.2747C16.945 1.91923 17.9499 1.90651 18.8649 2.23894C19.78 2.57137 20.5424 3.22612 21.0093 4.08046C21.4761 4.93481 21.6153 5.93009 21.4009 6.87975C21.1864 7.82941 20.6329 8.66824 19.8442 9.23901C19.0555 9.80979 18.0857 10.0733 17.1166 9.9802C16.1475 9.88708 15.2456 9.44371 14.58 8.7332L10.38 11.0232C10.5412 11.6646 10.5412 12.3358 10.38 12.9772L14.579 15.2672C15.2446 14.5567 16.1464 14.1133 17.1156 14.0202C18.0847 13.9271 19.0545 14.1906 19.8432 14.7614C20.6319 15.3322 21.1854 16.171 21.3999 17.1207C21.6143 18.0703 21.4751 19.0656 21.0083 19.9199C20.5414 20.7743 19.779 21.429 18.8639 21.7615C17.9489 22.0939 16.944 22.0812 16.0376 21.7257C15.1313 21.3702 14.3857 20.6964 13.9406 19.8305C13.4955 18.9646 13.3815 17.9661 13.62 17.0222V17.0232ZM6.49996 14.0002C7.0304 14.0002 7.5391 13.7895 7.91418 13.4144C8.28925 13.0393 8.49996 12.5306 8.49996 12.0002C8.49996 11.4698 8.28925 10.9611 7.91418 10.586C7.5391 10.2109 7.0304 10.0002 6.49996 10.0002C5.96953 10.0002 5.46082 10.2109 5.08575 10.586C4.71068 10.9611 4.49996 11.4698 4.49996 12.0002C4.49996 12.5306 4.71068 13.0393 5.08575 13.4144C5.46082 13.7895 5.96953 14.0002 6.49996 14.0002ZM17.5 8.0002C18.0304 8.0002 18.5391 7.78949 18.9142 7.41442C19.2892 7.03934 19.5 6.53064 19.5 6.0002C19.5 5.46977 19.2892 4.96106 18.9142 4.58599C18.5391 4.21092 18.0304 4.0002 17.5 4.0002C16.9695 4.0002 16.4608 4.21092 16.0857 4.58599C15.7107 4.96106 15.5 5.46977 15.5 6.0002C15.5 6.53064 15.7107 7.03934 16.0857 7.41442C16.4608 7.78949 16.9695 8.0002 17.5 8.0002ZM17.5 20.0002C18.0304 20.0002 18.5391 19.7895 18.9142 19.4144C19.2892 19.0393 19.5 18.5306 19.5 18.0002C19.5 17.4698 19.2892 16.9611 18.9142 16.586C18.5391 16.2109 18.0304 16.0002 17.5 16.0002C16.9695 16.0002 16.4608 16.2109 16.0857 16.586C15.7107 16.9611 15.5 17.4698 15.5 18.0002C15.5 18.5306 15.7107 19.0393 16.0857 19.4144C16.4608 19.7895 16.9695 20.0002 17.5 20.0002Z" fill="black"/>
</svg>
