<svg width="25" height="24" viewBox="0 0 25 24" fill="none" xmlns="http://www.w3.org/2000/svg">
<path d="M18.5 20H6.5V22H4.5V20H3.5C3.23478 20 2.98043 19.8946 2.79289 19.7071C2.60536 19.5196 2.5 19.2652 2.5 19V4C2.5 3.73478 2.60536 3.48043 2.79289 3.29289C2.98043 3.10536 3.23478 3 3.5 3H21.5C21.7652 3 22.0196 3.10536 22.2071 3.29289C22.3946 3.48043 22.5 3.73478 22.5 4V19C22.5 19.2652 22.3946 19.5196 22.2071 19.7071C22.0196 19.8946 21.7652 20 21.5 20H20.5V22H18.5V20ZM4.5 18H20.5V5H4.5V18ZM13.5 13.874V17H11.5V13.874C10.5595 13.6283 9.74061 13.0486 9.1962 12.2433C8.65179 11.438 8.4191 10.4621 8.54156 9.49778C8.66403 8.53346 9.13329 7.64669 9.86172 7.00303C10.5901 6.35937 11.5279 6.00284 12.5 6C13.4743 5.99904 14.4154 6.35368 15.1467 6.99737C15.8781 7.64106 16.3493 8.52954 16.4721 9.49605C16.5948 10.4625 16.3606 11.4406 15.8134 12.2467C15.2662 13.0528 14.4436 13.6314 13.5 13.874ZM12.5 12C13.0304 12 13.5391 11.7893 13.9142 11.4142C14.2893 11.0391 14.5 10.5304 14.5 10C14.5 9.46957 14.2893 8.96086 13.9142 8.58579C13.5391 8.21071 13.0304 8 12.5 8C11.9696 8 11.4609 8.21071 11.0858 8.58579C10.7107 8.96086 10.5 9.46957 10.5 10C10.5 10.5304 10.7107 11.0391 11.0858 11.4142C11.4609 11.7893 11.9696 12 12.5 12Z" fill="#222222"/>
</svg>
