<svg width="21" height="21" viewBox="0 0 21 21" fill="none" xmlns="http://www.w3.org/2000/svg">
<path fill-rule="evenodd" clip-rule="evenodd" d="M4.2988 6.99202C3.85763 7.32428 3.76935 7.95125 4.1016 8.39242L6.83158 12.0173H4.55334V13.9263H16.461V12.0173H11.6139L17.8464 7.32342C18.2875 6.99117 18.3758 6.36419 18.0436 5.92302L14.1843 0.798788C13.8521 0.357624 13.2251 0.269335 12.784 0.601589L4.2988 6.99202ZM6.30079 7.98802L8.95682 11.5147L15.8444 6.32743L13.1884 2.80078L6.30079 7.98802Z" />
<path d="M3.4988 9.99999H2.41323C1.89603 9.99999 1.46417 10.3944 1.41734 10.9095L0.599159 19.9095C0.545921 20.4951 1.00702 21 1.59505 21H19.405C19.993 21 20.4541 20.4951 20.4009 19.9095L19.5827 10.9095C19.5359 10.3944 19.104 9.99999 18.5868 9.99999H17.4973L17.6728 12L18.31 19H2.69008L3.32645 12H3.33125L3.4988 9.99999Z" />
</svg>
