<svg width="25" height="24" viewBox="0 0 25 24" fill="none" xmlns="http://www.w3.org/2000/svg">
<path d="M12.5 1L20.717 2.826C21.174 2.928 21.5 3.333 21.5 3.802V13.789C21.5 15.795 20.497 17.669 18.828 18.781L12.5 23L6.172 18.781C4.502 17.668 3.5 15.795 3.5 13.79V3.802C3.5 3.333 3.826 2.928 4.283 2.826L12.5 1ZM12.5 3.049L5.5 4.604V13.789C5.5 15.126 6.168 16.375 7.281 17.117L12.5 20.597L17.719 17.117C18.832 16.375 19.5 15.127 19.5 13.79V4.604L12.5 3.05V3.049ZM16.952 8.222L18.367 9.636L12.003 16L7.76 11.757L9.174 10.343L12.002 13.171L16.952 8.221V8.222Z" />
</svg>
