<svg width="49" height="48" viewBox="0 0 49 48" fill="none" xmlns="http://www.w3.org/2000/svg">
<g clip-path="url(#clip0_901_3795)">
<path d="M24.5 46.9787C37.1908 46.9787 47.4787 36.6908 47.4787 24C47.4787 11.3092 37.1908 1.0213 24.5 1.0213C11.8092 1.0213 1.52124 11.3092 1.52124 24C1.52124 36.6908 11.8092 46.9787 24.5 46.9787Z" fill="url(#paint0_linear_901_3795)"/>
<path d="M24.5 47.949C11.3 47.949 0.551025 37.2 0.551025 24C0.551025 10.8 11.3 0.0510864 24.5 0.0510864C37.7 0.0510864 48.4489 10.8 48.4489 24C48.4489 37.2 37.7 47.949 24.5 47.949ZM24.5 2.09364C12.4234 2.09364 2.59358 11.9234 2.59358 24C2.59358 36.0766 12.4234 45.9064 24.5 45.9064C36.5766 45.9064 46.4064 36.0766 46.4064 24C46.4064 11.9234 36.5766 2.09364 24.5 2.09364Z" fill="#28646E"/>
<path d="M23.1566 18.6729C22.9407 18.6729 22.694 18.5808 22.5398 18.3966C22.2314 18.059 22.2622 17.5372 22.6015 17.2303C24.9145 15.2046 25.9631 13.5165 26.1481 13.2096C26.8266 12.0126 27.9369 11.3987 29.078 11.5829C29.5406 11.6443 29.849 12.0433 29.7873 12.5036C29.7256 12.964 29.3247 13.271 28.8621 13.2096C28.1836 13.1175 27.7519 13.762 27.5668 14.0383C27.3509 14.4066 26.2098 16.2788 23.7117 18.4887C23.5575 18.6115 23.3417 18.6729 23.1566 18.6729Z" fill="#28646E"/>
<path d="M9.30917 32.5459C9.06245 32.5459 8.84656 32.4538 8.69236 32.239C8.4148 31.9013 8.44564 31.3796 8.78488 31.0726C9.58674 30.3974 11.2521 29.3538 11.8073 29.0469C12.2082 28.8321 12.7016 29.0162 12.9175 29.4152C13.1334 29.8142 12.9484 30.3053 12.5474 30.5202C12.1157 30.735 10.5736 31.7172 9.83346 32.331C9.67926 32.4845 9.49421 32.5459 9.30917 32.5459Z" fill="#28646E"/>
<path d="M30.0032 24.7807C30.3424 25.0876 30.7125 24.9648 31.0518 24.6272C33.4265 22.3559 35.9554 18.8263 36.7881 16.9847C36.9731 16.5857 37.3432 16.3709 37.7133 16.5243C38.1759 16.7085 38.1759 17.5065 37.7442 18.3352C36.6339 20.5758 35.1227 23.0619 32.1003 26.1925C31.8228 26.4995 31.8536 26.8985 32.1003 27.1133C32.3779 27.3588 32.8097 27.3281 33.2106 26.9291C34.7835 25.3331 35.832 24.1054 36.7264 22.847C36.9731 22.5094 37.2507 22.3866 37.5283 22.448C37.9292 22.5401 37.9909 22.9084 37.8675 23.3688C37.6825 24.1054 35.5853 26.8064 34.7835 27.7272C32.563 30.2133 30.3116 31.5637 26.0248 33.8043C24.5136 34.5716 23.4033 35.3389 22.7248 36.4746C22.108 37.5181 21.923 37.8557 21.8613 37.9785C21.6146 38.4696 21.7996 39.1141 22.3239 39.3597C22.4781 39.421 22.6015 39.4517 22.7557 39.4517C23.1566 39.4517 23.5267 39.2062 23.6809 38.8379C23.6809 38.8379 23.65 38.8686 24.4519 37.4874C24.8528 36.8429 25.6855 35.8607 26.9808 35.2775C31.2677 33.3132 33.0564 31.7786 35.5545 29.2925C36.6956 28.1569 38.2684 25.7321 38.7002 25.0262C39.903 23.0005 39.2862 21.2817 38.1759 21.0055C38.0834 20.9748 38.0526 20.8827 38.0834 20.7906C38.9161 19.3481 39.317 18.3659 39.4712 17.5986C39.6871 16.555 39.3787 15.2966 37.96 14.9897C37.8984 14.959 37.8367 14.8976 37.8675 14.8056C37.96 14.4679 38.0526 14.0689 38.1142 13.7927C38.4227 12.4422 37.5591 11.2145 36.5105 10.9997C35.7704 10.8462 35.1227 10.9997 34.5676 11.3987C34.4751 11.4601 34.3825 11.4294 34.3209 11.368C34.105 11.1224 33.7349 10.8769 33.2414 10.8769C32.3471 10.8462 31.4527 11.1224 30.805 12.5036C30.3424 13.4858 29.6639 14.8056 27.6285 17.0461C25.7472 19.1332 23.1258 21.1282 21.522 22.2025C21.2445 22.3866 20.8436 22.3559 20.8744 21.9569C20.9361 21.3431 21.5837 17.3224 21.7071 16.1253C21.8921 14.1917 20.8436 13.3016 19.6716 13.1482C18.7156 13.0254 17.2352 13.3016 16.4334 15.4808C15.9708 16.7699 14.9839 18.857 14.1512 22.2332C13.5652 24.6272 13.4727 27.3895 13.997 30.5816C14.0278 30.7657 13.997 30.9806 13.9044 31.134C13.2568 32.1776 12.3316 33.5588 11.8073 34.7558C11.5914 35.2468 11.7764 35.83 12.2391 36.0755C12.3933 36.1676 12.5475 36.1983 12.7325 36.1983C13.1026 36.1983 13.4727 35.9835 13.6577 35.6152C13.9661 34.9706 14.6138 33.7429 14.8605 33.2211C15.2923 32.331 15.5698 31.7479 15.6932 31.3796C15.7857 31.042 15.8782 30.643 15.6623 29.7836C15.3231 28.3103 15.2306 25.5173 15.8166 23.0312C16.6184 19.7778 18.0062 16.1253 18.253 15.5115C18.4997 14.8976 18.8389 14.7135 19.1782 14.7442C19.5174 14.7749 20.1959 14.9283 20.0109 16.156C19.6716 18.3659 19.209 21.1589 19.0548 22.1104C18.9623 22.5708 18.9006 23.645 19.7333 24.1361C20.4118 24.5351 21.152 24.3203 21.9538 23.7678C23.7734 22.5401 26.95 20.0847 28.9238 17.8748C30.9901 15.5422 31.6686 14.161 32.1929 12.9026C32.4396 12.3195 33.0564 12.3502 33.2723 12.4115C33.4882 12.4729 33.7657 12.7798 33.5807 13.3937C33.1181 14.9283 31.206 18.4273 27.5668 21.7114C27.1659 22.0797 27.1967 22.5094 27.4126 22.755C27.5976 22.9698 27.9986 23.1233 28.4303 22.755C31.7303 19.9619 33.5807 16.6164 34.4442 14.8363C34.876 13.9462 35.0302 13.4244 35.1536 12.9947C35.3386 12.4729 35.7395 12.2888 36.0171 12.3502C36.418 12.4422 36.6956 12.8412 36.5414 13.5165C36.418 14.0996 36.0788 15.0511 35.647 16.0026C34.5984 18.2431 32.3779 21.2203 29.9723 23.7678C29.7256 24.0747 29.6639 24.4737 30.0032 24.7807Z" fill="#28646E"/>
<path d="M14.9692 13.7159C15.0912 13.5923 15.0607 13.4687 14.9997 13.3451C14.8168 12.7888 13.8415 10.4094 13.5672 9.94586C13.4453 9.69864 13.2624 9.66774 13.0796 9.72955C12.8357 9.82225 12.5614 10.0386 12.1042 10.4403C11.6471 10.842 11.4032 11.0892 11.2813 11.3364C11.1899 11.5219 11.1899 11.6764 11.4032 11.8309C11.8299 12.1399 14.0244 13.4687 14.5425 13.7159C14.7254 13.7777 14.8473 13.8395 14.9692 13.7159Z" fill="#28646E"/>
<path d="M10.3875 14.5532C10.1115 14.5532 9.98882 14.6738 9.95816 14.8546C9.92749 15.0957 9.95816 15.4573 10.0502 16.0298C10.1422 16.6024 10.2342 16.964 10.3568 17.175C10.4488 17.3257 10.6022 17.4161 10.8475 17.3257C11.3382 17.1147 13.6076 15.9394 14.0983 15.608C14.1903 15.5477 14.3129 15.4573 14.2823 15.3066" fill="#28646E"/>
<path d="M33.3082 34.472C33.1578 34.472 33.0976 34.6251 33.0675 34.7476C32.857 35.2986 32.2554 37.7782 32.1651 38.2986C32.135 38.5741 32.2253 38.6966 32.4058 38.7578C32.6464 38.819 33.0074 38.819 33.5789 38.7884C34.1504 38.7578 34.5114 38.6966 34.7521 38.6047C34.9325 38.5129 35.0228 38.3904 34.9325 38.1149C34.7821 37.5945 33.8496 35.2374 33.5789 34.7169C33.5488 34.5945 33.4586 34.4414 33.3082 34.472Z" fill="#28646E"/>
<path d="M34.7458 33.3191C34.6536 33.4753 34.7765 33.6003 34.838 33.6941C35.2067 34.1628 36.9888 36.0378 37.4189 36.3815C37.634 36.569 37.7876 36.5378 37.9413 36.3815C38.1256 36.194 38.31 35.8815 38.5865 35.3503C38.863 34.819 39.0166 34.4753 39.0474 34.2253C39.0781 34.0378 38.9859 33.8816 38.7401 33.7878C38.2178 33.6316 35.6983 33.2253 35.1145 33.1941C34.9916 33.1941 34.838 33.1628 34.7458 33.3191Z" fill="#28646E"/>
</g>
<defs>
<linearGradient id="paint0_linear_901_3795" x1="1.52124" y1="24" x2="47.4787" y2="24" gradientUnits="userSpaceOnUse">
<stop stop-color="#D2F0F0"/>
<stop offset="1" stop-color="#F0E6B4"/>
</linearGradient>
<clipPath id="clip0_901_3795">
<rect width="48" height="48" fill="white" transform="translate(0.5)"/>
</clipPath>
</defs>
</svg>
